# xmcd
#
# Track frame offsets:
#	150
#	20727
#	39144
#	59313
#	79747
#	104577
#	127794
#	150419
#	169651
#	196689
#	223142
#	250350
#	273490
#	296310
#	325006
#
# Disc length: 4710 seconds
#
# Revision: 1
# Processed by: cddbd v1.5.1PL0 Copyright (c) Steve Scherf et al.
# Submitted via: CDRider 2.0
#
DISCID=c712640f
DTITLE=Teddy Pendergrass - Greatest hits
DYEAR=1900
DGENRE=R&B
TTITLE0=I don't love you anymore
TTITLE1=The whole town is laughing at me
TTITLE2=And if I had
TTITLE3=The more I get the more I want
TTITLE4=Close the door
TTITLE5=Only you
TTITLE6=When somebody loves you
TTITLE7=Life is a song worth singing
TTITLE8=Turn off the lights
TTITLE9=Come go with me
TTITLE10=Shout and scream
TTITLE11=Can't we try
TTITLE12=Love TKO
TTITLE13=Joy
TTITLE14=It shouldn't have been you
EXTD=
EXTT0=
EXTT1=
EXTT2=
EXTT3=
EXTT4=
EXTT5=
EXTT6=
EXTT7=
EXTT8=
EXTT9=
EXTT10=
EXTT11=
EXTT12=
EXTT13=
EXTT14=
PLAYORDER=
